<svg width="24" height="24" viewBox="0 0 24 24" fill="none" xmlns="http://www.w3.org/2000/svg">
<path d="M23.7631 10.4157C23.698 10.3646 23.0895 9.91135 21.8059 9.91135C21.4669 9.91285 21.1288 9.9414 20.7948 9.99699C20.5463 8.31724 19.1826 7.52794 19.1195 7.49138L18.7749 7.29506L18.5481 7.61759C18.2641 8.0513 18.0132 8.49903 17.8915 9.00136C17.6616 9.96043 17.8013 10.8609 18.2952 11.6307C17.6982 11.9587 16.681 11.9877 16.4877 11.9948H0.75293C0.339252 11.9953 0.00370287 12.3253 0.00119877 12.733C-0.0173316 14.1017 0.177988 15.514 0.65527 16.7991C1.20066 18.2104 2.01249 19.2501 3.06822 19.8862C4.25116 20.6009 6.17331 21.0095 8.35238 21.0095C9.33649 21.0125 10.3191 20.9249 11.2867 20.7471C12.6319 20.5032 13.9265 20.0394 15.1165 19.3748C16.0971 18.8144 16.9795 18.1018 17.7302 17.2639C18.9848 15.8626 19.732 14.3025 20.2879 12.9158C20.3625 12.9158 20.4372 12.9158 20.5093 12.9158C21.883 12.9158 22.7274 12.3734 23.1932 11.9191C23.5027 11.6292 23.7446 11.2761 23.9013 10.8849L24 10.6005L23.7631 10.4157Z" fill="#2395EC"/>
<path d="M3.96719 11.4939H2.46473C2.18828 11.4939 1.96391 11.2696 1.96391 10.9931V9.49066C1.96391 9.21421 2.18828 8.98984 2.46473 8.98984H3.96719C4.24365 8.98984 4.46801 9.21421 4.46801 9.49066V10.9931C4.46801 11.2696 4.24365 11.4939 3.96719 11.4939Z" fill="#2395EC"/>
<path d="M6.97211 11.4939H5.46965C5.1932 11.4939 4.96883 11.2696 4.96883 10.9931V9.49066C4.96883 9.21421 5.1932 8.98984 5.46965 8.98984H6.97211C7.24857 8.98984 7.47293 9.21421 7.47293 9.49066V10.9931C7.47293 11.2696 7.24857 11.4939 6.97211 11.4939Z" fill="#2395EC"/>
<path d="M9.97704 11.4939H8.47458C8.19812 11.4939 7.97375 11.2696 7.97375 10.9931V9.49066C7.97375 9.21421 8.19812 8.98984 8.47458 8.98984H9.97704C10.2535 8.98984 10.4779 9.21421 10.4779 9.49066V10.9931C10.4779 11.2696 10.2535 11.4939 9.97704 11.4939Z" fill="#2395EC"/>
<path d="M12.982 11.4939H11.4795C11.203 11.4939 10.9787 11.2696 10.9787 10.9931V9.49066C10.9787 9.21421 11.203 8.98984 11.4795 8.98984H12.982C13.2584 8.98984 13.4828 9.21421 13.4828 9.49066V10.9931C13.4828 11.2696 13.2584 11.4939 12.982 11.4939Z" fill="#2395EC"/>
<path d="M6.97211 8.48902H5.46965C5.1932 8.48902 4.96883 8.26465 4.96883 7.9882V6.48574C4.96883 6.20928 5.1932 5.98492 5.46965 5.98492H6.97211C7.24857 5.98492 7.47293 6.20928 7.47293 6.48574V7.9882C7.47293 8.26465 7.24857 8.48902 6.97211 8.48902Z" fill="#2395EC"/>
<path d="M9.97704 8.48902H8.47458C8.19812 8.48902 7.97375 8.26465 7.97375 7.9882V6.48574C7.97375 6.20928 8.19812 5.98492 8.47458 5.98492H9.97704C10.2535 5.98492 10.4779 6.20928 10.4779 6.48574V7.9882C10.4779 8.26465 10.2535 8.48902 9.97704 8.48902Z" fill="#2395EC"/>
<path d="M12.982 8.48902H11.4795C11.203 8.48902 10.9787 8.26465 10.9787 7.9882V6.48574C10.9787 6.20928 11.203 5.98492 11.4795 5.98492H12.982C13.2584 5.98492 13.4828 6.20928 13.4828 6.48574V7.9882C13.4828 8.26465 13.2584 8.48902 12.982 8.48902Z" fill="#2395EC"/>
<path d="M12.982 5.4841H11.4795C11.203 5.4841 10.9787 5.25973 10.9787 4.98328V3.48082C10.9787 3.20436 11.203 2.98 11.4795 2.98H12.982C13.2584 2.98 13.4828 3.20436 13.4828 3.48082V4.98328C13.4828 5.25973 13.2584 5.4841 12.982 5.4841Z" fill="#2395EC"/>
<path d="M15.9869 11.4939H14.4844C14.208 11.4939 13.9836 11.2696 13.9836 10.9931V9.49066C13.9836 9.21421 14.208 8.98984 14.4844 8.98984H15.9869C16.2633 8.98984 16.4877 9.21421 16.4877 9.49066V10.9931C16.4877 11.2696 16.2633 11.4939 15.9869 11.4939Z" fill="#2395EC"/>
</svg>
