<svg width="24" height="24" viewBox="0 0 24 24" fill="none" xmlns="http://www.w3.org/2000/svg">
<path d="M9.81665 23.08C9.52037 23.08 9.22612 23.0024 8.96636 22.8532L6.25985 21.254C5.85561 21.0284 6.05287 20.9486 6.18619 20.9027C6.72518 20.7143 6.83456 20.6718 7.40987 20.3457C7.47035 20.3113 7.54949 20.3234 7.61138 20.3599L9.69063 21.5912C9.76571 21.6317 9.87226 21.6317 9.94186 21.5912L18.049 16.921C18.1241 16.8785 18.1728 16.7914 18.1728 16.7023V7.36587C18.1728 7.27271 18.1241 7.18967 18.0474 7.14309L9.94349 2.47691C9.8684 2.43236 9.76896 2.43236 9.69388 2.47691L1.5916 7.14309C1.51306 7.18765 1.46314 7.27473 1.46314 7.36384V16.7003C1.46314 16.7894 1.51185 16.8744 1.58896 16.917L3.80904 18.1969C5.01446 18.7984 5.75111 18.0896 5.75111 17.3767V8.16179C5.75111 8.03015 5.8546 7.92889 5.9865 7.92889H7.01334C7.14119 7.92889 7.24672 8.03015 7.24672 8.16179V17.3807C7.24672 18.9847 6.37005 19.9062 4.84603 19.9062C4.37725 19.9062 4.00791 19.9062 2.97702 19.3999L0.850287 18.1767C0.324692 17.8729 0 17.3058 0 16.7003V7.36384C0 6.75627 0.324692 6.1892 0.850287 5.88946L8.96555 1.21721C9.47897 0.927597 10.1608 0.927597 10.6702 1.21721L18.7753 5.89149C19.2989 6.19325 19.6256 6.7583 19.6256 7.36587V16.7023C19.6256 17.3078 19.2989 17.8729 18.7753 18.1767L10.6702 22.8489C10.4104 22.9988 10.1162 23.0757 9.81584 23.0757" fill="#689F63"/>
<path d="M12.3208 16.6466C8.77358 16.6466 8.02983 15.0215 8.02983 13.6585C8.02983 13.5289 8.13454 13.4256 8.26462 13.4256H9.31176C9.42743 13.4256 9.52483 13.5097 9.5431 13.6237C9.70139 14.6886 10.1722 15.2257 12.3172 15.2257C14.0259 15.2257 14.7524 14.8405 14.7524 13.9362C14.7524 13.4157 14.5454 13.0289 11.891 12.7696C9.67095 12.5509 8.29912 12.0628 8.29912 10.2907C8.29912 8.65838 9.67906 7.68626 11.9905 7.68626C14.586 7.68626 15.8726 8.58547 16.0349 10.5176C16.041 10.5844 16.0166 10.6492 15.972 10.6978C15.9274 10.7444 15.8644 10.7727 15.7995 10.7727H14.7463C14.6367 10.7727 14.5413 10.6958 14.519 10.5905C14.2653 9.47051 13.6525 9.11204 11.9864 9.11204C10.1215 9.11204 9.90432 9.76012 9.90432 10.2462C9.90432 10.8355 10.16 11.0077 12.6764 11.3398C15.1684 11.6699 16.3515 12.1357 16.3515 13.8835C16.3515 15.6455 14.8782 16.6561 12.3091 16.6561M22.1838 6.75465H22.4557C22.6789 6.75465 22.7215 6.5987 22.7215 6.50757C22.7215 6.26859 22.5572 6.26859 22.4658 6.26859H22.1858L22.1838 6.75465ZM21.853 5.9891H22.4557C22.6627 5.9891 23.0685 5.9891 23.0685 6.45086C23.0685 6.77287 22.8616 6.83971 22.7378 6.88021C22.9793 6.89641 22.9955 7.05438 23.028 7.27716C23.0442 7.4169 23.0706 7.65791 23.1193 7.73892H22.7479C22.7378 7.65791 22.6809 7.21235 22.6809 7.18805C22.6566 7.08881 22.6221 7.04021 22.4983 7.04021H22.1919V7.74094H21.853V5.9891ZM21.1285 6.85996C21.1285 7.585 21.715 8.17232 22.4354 8.17232C23.1619 8.17232 23.7484 7.57285 23.7484 6.85996C23.7484 6.1329 23.1538 5.5557 22.4334 5.5557C21.7231 5.5557 21.1265 6.12479 21.1265 6.85793M24 6.86401C24 7.72272 23.2958 8.42346 22.4374 8.42346C21.5851 8.42346 20.8748 7.73082 20.8748 6.86401C20.8748 5.981 21.6013 5.30457 22.4374 5.30457C23.2796 5.30457 23.998 5.98302 23.998 6.86401" fill="#689F63"/>
</svg>
