<svg width="24" height="24" viewBox="0 0 24 24" fill="none" xmlns="http://www.w3.org/2000/svg">
<path fill-rule="evenodd" clip-rule="evenodd" d="M10.8709 1.06015C14.043 -0.952949 18.4556 -0.0175712 20.672 3.17491C21.7497 4.65932 22.1767 6.53007 21.8311 8.36016C21.6887 9.2142 21.3634 10.0276 20.8753 10.7596C21.587 12.0813 21.8107 13.6064 21.5464 15.0908C21.2414 16.8599 20.184 18.4256 18.6589 19.3814L13.067 22.9399C9.89482 24.9529 5.50261 24.0176 3.26584 20.8251C2.20846 19.3407 1.78144 17.4699 2.10679 15.6602C2.24913 14.8061 2.57447 13.9928 3.0625 13.2607C2.3508 11.939 2.12712 10.4139 2.39147 8.92952C2.69648 7.16044 3.75386 5.5947 5.27894 4.63898L10.8709 1.06015ZM5.56371 19.361C6.6211 20.8861 8.51219 21.5978 10.3219 21.1301C10.7286 21.0081 11.115 20.8454 11.4607 20.6217L17.0526 17.0632C17.9676 16.4939 18.6183 15.5382 18.8013 14.4808C18.9844 13.3827 18.7403 12.2644 18.0896 11.3696C17.0323 9.84457 15.1412 9.13287 13.3314 9.60056C12.9247 9.72257 12.5384 9.88524 12.1927 10.1089L10.0576 11.4713C9.95592 11.5323 9.83392 11.573 9.71191 11.6137C9.16289 11.756 8.59352 11.5527 8.26818 11.085C8.08517 10.8206 8.00383 10.4749 8.06483 10.1496C8.12584 9.82424 8.30885 9.55989 8.59352 9.37688L14.1651 5.81838C14.2668 5.75738 14.3888 5.71671 14.5108 5.67604C15.0598 5.5337 15.6292 5.73704 15.9545 6.20473C16.1172 6.44874 16.1986 6.75376 16.1782 7.03844L16.1579 7.24178L16.3612 7.30278C17.1543 7.5468 17.8863 7.91281 18.5573 8.40084L18.842 8.60418L18.9437 8.27883C19.0047 8.09582 19.0454 7.93315 19.086 7.75014C19.269 6.65209 19.025 5.5337 18.3743 4.63899C17.3169 3.11392 15.4258 2.40222 13.6161 2.86991C13.2094 2.99191 12.8231 3.15459 12.4774 3.37827L6.88544 6.93677C5.9704 7.50613 5.3197 8.46184 5.13669 9.51922C4.93335 10.6173 5.1977 11.7357 5.82806 12.6304C6.88544 14.1554 8.77653 14.8671 10.5863 14.3995C10.993 14.2978 11.3793 14.1351 11.725 13.9114L13.8601 12.549C13.9618 12.488 14.0838 12.4474 14.2058 12.4067C14.7548 12.2644 15.3242 12.4677 15.6495 12.9354C15.8325 13.1997 15.9139 13.5454 15.8529 13.8708C15.7919 14.1961 15.6089 14.4605 15.3242 14.6435L9.75258 18.202C9.65092 18.263 9.52893 18.3036 9.40694 18.3443C8.85792 18.4866 8.28851 18.263 7.96316 17.7953C7.80049 17.5513 7.71915 17.2463 7.73948 16.9616L7.75982 16.7582L7.55648 16.6972C6.76344 16.4532 6.0314 16.0872 5.36037 15.5992L5.07569 15.3958L4.97402 15.7212C4.95368 15.8127 4.93335 15.8991 4.91301 15.9855C4.89268 16.072 4.87235 16.1584 4.85201 16.2499C4.669 17.3479 4.91302 18.4663 5.56371 19.361Z" fill="#FF3E00"/>
</svg>
