<svg version="1.1" viewBox="0 0 400 400" xml:space="preserve" xmlns="http://www.w3.org/2000/svg">
<desc>Created with Fabric.js 3.6.2</desc>

<g id="surface1" transform="matrix(4.17 0 0 4.17 244.23 161.48)">
<path transform="translate(-34.62 -14.76)" d="m34.629 11.555 3.1133 2.5156-3.1445 3.8867-3.1094-2.5156z" fill="#3949ab" stroke-linecap="round"/>
</g>
<g id="surface1" transform="matrix(4.17 0 0 4.17 200 145.83)">
<path transform="translate(-24 -11)" d="m21 9h6v4h-6z" fill="#3949ab" stroke-linecap="round"/>
</g>
<g id="surface1" transform="matrix(4.17 0 0 4.17 200 216.67)">
<path transform="translate(-24 -28)" d="m37.5 28c0 7.457-6.043 13.5-13.5 13.5s-13.5-6.043-13.5-13.5 6.043-13.5 13.5-13.5 13.5 6.043 13.5 13.5z" fill="#eee" stroke-linecap="round"/>
</g>
<g id="surface1" transform="matrix(4.17 0 0 4.17 199.99 216.55)">
<path transform="translate(-24 -27.97)" d="m22.633 30.117c1.1758 0.76562 2.7422 0.42188 3.4922-0.76562 0.75391-1.1836 0.41406-2.7617-0.76172-3.5273-1.1758-0.76172-2.7383-0.41797-3.4961 0.77344-0.75 1.1836-0.41016 2.7617 0.76562 3.5195" fill="#263238" stroke-linecap="round"/>
</g>
<g id="surface1" transform="matrix(4.17 0 0 4.17 181.2 206.13)">
<path transform="translate(-19.49 -25.47)" d="m14.777 22 9.4219 4.0859-1.8203 2.8555z" fill="#263238" stroke-linecap="round"/>
</g>
<g id="surface1" transform="matrix(4.17 0 0 4.17 199.98 216.55)">
<path transform="translate(-24 -27.97)" d="m23.547 28.691c0.39062 0.25 0.91016 0.13672 1.1602-0.26172 0.25-0.39453 0.13672-0.91797-0.25781-1.1719-0.38672-0.25391-0.91016-0.14062-1.1641 0.25391-0.25 0.39844-0.13672 0.92578 0.26172 1.1797" fill="#9fa8da" stroke-linecap="round"/>
</g>
<g id="surface1" transform="matrix(4.17 0 0 4.17 199.97 164.58)">
<path transform="translate(-23.99 -15.5)" d="m24.992 13.059c-0.375-0.023438-0.74609-0.058594-1.1211-0.058594-0.29688 0-0.58594 0.03125-0.87891 0.046875v4.9531h2z" fill="#90a4ae" stroke-linecap="round"/>
</g>
<g id="surface1" transform="matrix(4.17 0 0 4.17 199.97 268.75)">
<path transform="translate(-23.99 -40.5)" d="m24.992 38.059c-0.375-0.023438-0.74609-0.058594-1.1211-0.058594-0.29688 0-0.58594 0.03125-0.87891 0.046875v4.9531h2z" fill="#90a4ae" stroke-linecap="round"/>
</g>
<g id="surface1" transform="matrix(4.17 0 0 4.17 147.88 216.67)">
<path transform="translate(-11.49 -28)" d="m9.0508 29c-0.023437-0.375-0.058593-0.74609-0.058593-1.1211 0-0.29297 0.03125-0.58594 0.046875-0.87891h4.9531v2z" fill="#90a4ae" stroke-linecap="round"/>
</g>
<g id="surface1" transform="matrix(4.17 0 0 4.17 252.05 216.67)">
<path transform="translate(-36.49 -28)" d="m34.051 29c-0.023437-0.375-0.058593-0.74609-0.058593-1.1211 0-0.29297 0.03125-0.58594 0.046875-0.87891h4.9531v2z" fill="#90a4ae" stroke-linecap="round"/>
</g>
<g id="surface1" transform="matrix(4.17 0 0 4.17 225.74 171.53)">
<path transform="translate(-30.18 -17.17)" d="m32.27 15.523c-0.3125-0.21094-0.61719-0.42188-0.94141-0.60938-0.25781-0.14453-0.52344-0.26172-0.78906-0.39453l-2.4531 4.3008 1.7344 0.99219z" fill="#90a4ae" stroke-linecap="round"/>
</g>
<g id="surface1" transform="matrix(4.17 0 0 4.17 174.07 261.97)">
<path transform="translate(-17.78 -38.87)" d="m19.871 37.23c-0.3125-0.20703-0.61719-0.42188-0.94141-0.60547-0.25781-0.14844-0.52734-0.26562-0.78906-0.39844l-2.457 4.3008 1.7383 0.99219z" fill="#90a4ae" stroke-linecap="round"/>
</g>
<g id="surface1" transform="matrix(4.17 0 0 4.17 245.3 242.55)">
<path transform="translate(-34.87 -34.21)" d="m32.23 33.855c0.16406-0.33594 0.31641-0.67578 0.50391-1 0.14453-0.25781 0.31641-0.49219 0.47656-0.74219l4.3008 2.457-0.99219 1.7383z" fill="#90a4ae" stroke-linecap="round"/>
</g>
<g id="surface1" transform="matrix(4.17 0 0 4.17 244.34 189.61)">
<path transform="translate(-34.64 -21.51)" d="m37.27 21.078c-0.17188-0.33203-0.33594-0.66797-0.53125-0.98828-0.15234-0.25-0.33203-0.48047-0.5-0.72656l-4.2266 2.5781 1.0391 1.707z" fill="#90a4ae" stroke-linecap="round"/>
</g>
<g id="surface1" transform="matrix(4.17 0 0 4.17 155.39 243.82)">
<path transform="translate(-13.29 -34.52)" d="m15.922 34.09c-0.17188-0.33203-0.33594-0.66797-0.53125-0.98828-0.15625-0.25391-0.33203-0.48438-0.5-0.72656l-4.2266 2.5781 1.0391 1.707z" fill="#90a4ae" stroke-linecap="round"/>
</g>
<g id="surface1" transform="matrix(4.17 0 0 4.17 172.92 172.27)">
<path transform="translate(-17.5 -17.35)" d="m15.359 15.762c0.30859-0.21484 0.60547-0.4375 0.92578-0.63281 0.25391-0.15234 0.51953-0.27734 0.77734-0.41797l2.5781 4.2305-1.707 1.0391z" fill="#90a4ae" stroke-linecap="round"/>
</g>
<g id="surface1" transform="matrix(4.17 0 0 4.17 227.13 261.22)">
<path transform="translate(-30.51 -38.69)" d="m28.371 37.109c0.30859-0.21484 0.60547-0.4375 0.92969-0.63281 0.25-0.15625 0.51562-0.27734 0.77344-0.41797l2.5781 4.2266-1.707 1.043z" fill="#90a4ae" stroke-linecap="round"/>
</g>
<g id="surface1" transform="matrix(4.17 0 0 4.17 252.09 151.77)">
<path transform="translate(-36.5 -12.42)" d="m37.891 15.477c-0.34766 0.42969-0.97656 0.49609-1.4062 0.14844l-3.1094-2.5156c-0.42969-0.34766-0.49609-0.97656-0.14844-1.4062l1.8867-2.332c0.34766-0.42969 0.97656-0.49609 1.4062-0.14844l3.1094 2.5156c0.42969 0.34766 0.49609 0.97656 0.14844 1.4062z" fill="#9470f8" stroke-linecap="round"/>
</g>
<g id="a" transform="matrix(4.17 0 0 4.17 200 216.67)">
<path transform="translate(-24 -28)" d="m24 12c-8.8359 0-16 7.1641-16 16 0 8.8359 7.1641 16 16 16 8.8359 0 16-7.1641 16-16 0-8.8359-7.1641-16-16-16zm0 29c-7.1797 0-13-5.8203-13-13 0-7.1797 5.8203-13 13-13 7.1797 0 13 5.8203 13 13 0 7.1797-5.8203 13-13 13z" fill="#9470f8" stroke-linecap="round"/>
</g>
<g transform="matrix(4.17 0 0 4.17 200 129.17)">
<path transform="translate(-24 -7)" d="m29 9c0 0.55469-0.44531 1-1 1h-8c-0.55469 0-1-0.44531-1-1v-4c0-0.55469 0.44531-1 1-1h8c0.55469 0 1 0.44531 1 1z" fill="#9470f8" stroke-linecap="round"/>
</g>
</svg>