<svg width="24" height="24" viewBox="0 0 24 24" fill="none" xmlns="http://www.w3.org/2000/svg">
<g clip-path="url(#clip0_1_427)">
<path fill-rule="evenodd" clip-rule="evenodd" d="M2.34375 0H21.6562C22.9507 0 24 1.04933 24 2.34375V21.6562C24 22.9507 22.9507 24 21.6562 24H2.34375C1.04933 24 0 22.9507 0 21.6562V2.34375C0 1.04933 1.04933 0 2.34375 0ZM14.8565 21.4446V19.098C15.282 19.4549 15.7442 19.7226 16.243 19.901C16.7419 20.0794 17.2456 20.1686 17.7543 20.1686C18.0526 20.1686 18.313 20.1418 18.5356 20.088C18.7581 20.0342 18.944 19.9597 19.0931 19.8643C19.2423 19.769 19.3536 19.6566 19.4269 19.527C19.5003 19.3974 19.537 19.2569 19.537 19.1054C19.537 18.9 19.4783 18.7167 19.3609 18.5554C19.2435 18.394 19.0833 18.2449 18.8804 18.108C18.6774 17.9712 18.4365 17.8392 18.1578 17.712C17.879 17.5849 17.5782 17.4554 17.2554 17.3234C16.4338 16.9812 15.8212 16.5632 15.4177 16.0695C15.0142 15.5757 14.8125 14.9792 14.8125 14.2801C14.8125 13.7326 14.9226 13.2621 15.1426 12.8685C15.3627 12.475 15.6622 12.1511 16.0413 11.8969C16.4204 11.6427 16.8593 11.4557 17.3581 11.3359C17.857 11.2162 18.3852 11.1562 18.9427 11.1562C19.4905 11.1562 19.9759 11.1892 20.399 11.2552C20.822 11.3212 21.2121 11.4227 21.5691 11.5596V13.7522C21.393 13.6299 21.201 13.5224 20.9932 13.4295C20.7853 13.3366 20.5714 13.2596 20.3513 13.1985C20.1312 13.1374 19.9123 13.0922 19.6947 13.0628C19.477 13.0335 19.2704 13.0189 19.0748 13.0189C18.8058 13.0189 18.5613 13.0445 18.3412 13.0958C18.1211 13.1472 17.9353 13.2193 17.7836 13.3122C17.632 13.4051 17.5147 13.5163 17.4315 13.6458C17.3483 13.7754 17.3068 13.9208 17.3068 14.0821C17.3068 14.2582 17.3533 14.4158 17.4462 14.5552C17.5391 14.6945 17.6711 14.8265 17.8423 14.9512C18.0135 15.0758 18.2213 15.198 18.4659 15.3178C18.7104 15.4376 18.9868 15.561 19.2949 15.6881C19.7155 15.8641 20.0933 16.0511 20.4283 16.2491C20.7633 16.4471 21.0507 16.6708 21.2903 16.9201C21.53 17.1694 21.7133 17.4542 21.8405 17.7744C21.9677 18.0946 22.0312 18.4673 22.0312 18.8927C22.0312 19.4793 21.92 19.9718 21.6975 20.3703C21.4749 20.7687 21.1729 21.0914 20.7915 21.3382C20.41 21.5851 19.9661 21.7624 19.4599 21.8699C18.9537 21.9775 18.4194 22.0312 17.857 22.0312C17.2799 22.0312 16.7309 21.9824 16.21 21.8846C15.6892 21.7868 15.238 21.6402 14.8565 21.4446ZM13.9219 13.3163H10.9116V21.8906H8.52684V13.3163H5.53125V11.3906H13.9219V13.3163Z" fill="#3178C6"/>
</g>
<defs>
<clipPath id="clip0_1_427">
<rect width="24" height="24" fill="white"/>
</clipPath>
</defs>
</svg>
