<svg width="24" height="24" viewBox="0 0 24 24" fill="none" xmlns="http://www.w3.org/2000/svg">
<path d="M21.8596 4.96016L12.4996 21.739C12.3063 22.0854 11.8098 22.0874 11.6137 21.7427L2.06806 4.96178C1.85436 4.58611 2.17481 4.13106 2.59947 4.20715L11.9695 5.88614C12.0293 5.89685 12.0905 5.89675 12.1503 5.88583L21.3244 4.20956C21.7476 4.13223 22.0696 4.58375 21.8596 4.96016Z" fill="url(#paint0_linear_1_337)"/>
<path d="M16.433 2.00492L9.50628 3.36554C9.39243 3.3879 9.30814 3.48462 9.30127 3.6007L8.87518 10.8148C8.86516 10.9847 9.02082 11.1166 9.18625 11.0784L11.1147 10.6322C11.2952 10.5905 11.4582 10.7498 11.4211 10.9317L10.8482 13.7443C10.8096 13.9336 10.9869 14.0954 11.1713 14.0393L12.3624 13.6765C12.5471 13.6203 12.7245 13.7826 12.6855 13.9721L11.7749 18.39C11.718 18.6664 12.0846 18.8171 12.2376 18.5801L12.3397 18.4219L17.984 7.12992C18.0785 6.94085 17.9155 6.72526 17.7083 6.76534L15.7233 7.1494C15.5367 7.18545 15.378 7.0113 15.4307 6.82834L16.7263 2.32582C16.779 2.14255 16.6197 1.96825 16.433 2.00492Z" fill="url(#paint1_linear_1_337)"/>
<defs>
<linearGradient id="paint0_linear_1_337" x1="1.835" y1="1.33574" x2="15.3378" y2="17.6173" gradientUnits="userSpaceOnUse">
<stop stop-color="#41D1FF"/>
<stop offset="1" stop-color="#BD34FE"/>
</linearGradient>
<linearGradient id="paint1_linear_1_337" x1="11.4317" y1="2.37433" x2="13.5492" y2="16.8645" gradientUnits="userSpaceOnUse">
<stop stop-color="#FFEA83"/>
<stop offset="0.0833333" stop-color="#FFDD35"/>
<stop offset="1" stop-color="#FFA800"/>
</linearGradient>
</defs>
</svg>
